<svg xmlns="http://www.w3.org/2000/svg" viewBox="0 0 163.11 57.94"><defs><style>.cls-1{fill:#fff;}</style></defs><g id="Layer_2" data-name="Layer 2"><g id="Layer_1-2" data-name="Layer 1"><path d="M20.53,1.36c-10,3.7-17.7,12.2-19.9,22-4.8,21.6,18.5,40.4,40.8,32.9,7.4-2.5,7.6-2.8,4.6-8.9-2.7-5.4-2.7-5.4-5.4-3.9-3.6,1.8-13,1.8-17.3,0-7.6-3.1-11.7-13.6-8.1-20.7,2.8-5.5,5.6-7.9,11.1-9.5a17.14,17.14,0,0,1,10-.4,22.48,22.48,0,0,1,5.9,2c.8.6,2-.8,3.8-4.5,3-6.2,2.7-6.8-4.9-9.1C35.23-.44,25.43-.44,20.53,1.36Z"/><path d="M117.73.66c-4.8,1.5-6.8,8.3-3.4,11.6,3.7,3.8,10.4,2.4,11.9-2.4S122.33-.84,117.73.66Z"/><path d="M139,20.08a20.47,20.47,0,0,0-11.5,10.5l-2.38,4.8-.3-6.6-.3-6.6-8.92-.6c-9-.6-11.31-.1-15.47,2.9-2.18,1.6-2.28,1.5-2.28-.5s-.6-2.1-6-2.1H85.58v35h12L98,45.78c.4-13.1,1.19-14.3,8.93-13.6,2.88.2,4.86,0,5.16-.7s.49,4.9.49,12.1l.1,13.3h11.9v-8.1c0-7.9,1.19-9.9,2.48-4,.7,3.5,5.85,8.9,10.12,10.7,7.83,3.4,18.15.4,22.71-6.5,7-10.8,2.08-24.7-10.41-29A14.17,14.17,0,0,0,139,20.08Zm9.57,7c1.1,2.2,1.6,2.5,3.6,1.7,2.7-1,3.6-.5,3.6,2.2,0,1.4-.8,1.8-3.2,1.9h-3.3l4.3,2.2c2.3,1.1,4.2,2.8,4.2,3.7,0,2.6-2.5,5.4-4.3,4.7-1.1-.4-1.4-.2-1.1.8.5,1.2-1.7,6.5-3.8,9.2-.8.9-2.8.2-8.6-2.9-10.9-5.8-10.8-5.6-8-11.2,1.8-3.8,2.7-4.6,4.3-4.2,1.9.5,1.9.4.3-.8-2.1-1.6-2.3-3.6-.5-6,1.3-1.7,1.5-1.7,5.5.3s5.5,1.8,3.1-.6c-1.4-1.4-.4-4.6,1.4-4.1A7.69,7.69,0,0,1,148.53,27.08Z"/><path d="M46.58,34.08c0,13.6,1.1,17.4,6.3,21.2,2.4,1.8,4.3,2.1,12.7,2.1s10.3-.3,12.7-2.1c5.2-3.8,6.3-7.6,6.3-21.2V21.88h-12v10.2c0,13.2-1,15.3-7,15.3s-7-2.1-7-15.3V21.88h-12Z"/><ellipse cx="145.58" cy="38.88" rx="17" ry="15"/><path class="cls-1" d="M140.86,26.25a4,4,0,0,1,5.27-1.88,3.86,3.86,0,0,1,2.21,5.06,4,4,0,0,1,5.27-1.88,3.86,3.86,0,0,1,2.21,5.05h0a3.29,3.29,0,0,1-.36.66l3,1.3a1.55,1.55,0,0,1,.89,2l-1.23,2.77a1.6,1.6,0,0,1-2.11.75l-4.59,10.4a2.4,2.4,0,0,1-3.16,1.13h0l-16.46-7a2.32,2.32,0,0,1-1.33-3h0l4.59-10.4a1.54,1.54,0,0,1-.88-2l1.22-2.77a1.6,1.6,0,0,1,2.11-.75l3.05,1.3a3.32,3.32,0,0,1,.25-.71Zm1.29,1.37,4.39,1.86.31-.69a2.32,2.32,0,0,0-1.33-3,2.4,2.4,0,0,0-3.16,1.12,2.12,2.12,0,0,0-.2.63A.41.41,0,0,0,142.15,27.62Zm7.38,3.14,4.39,1.86.08-.08a2.37,2.37,0,0,0,.33-.57,2.32,2.32,0,0,0-1.33-3,2.39,2.39,0,0,0-3.16,1.12ZM137,27.06l-1.23,2.77,9,3.81,1.23-2.77Zm12,5.08-1.22,2.77,9,3.82L157.9,36Zm5.65,7.34-7.49-3.18-4.89,11.09,6.73,2.86a.8.8,0,0,0,1.06-.38Z"/><rect class="cls-1" x="143.05" y="36.31" width="10.66" height="13.77" transform="translate(27.64 -53.27) rotate(22.39)"/><rect class="cls-1" x="134.62" y="30.22" width="24.23" height="4.76" transform="translate(23.48 -53.44) rotate(22.39)"/></g></g></svg>